{
  "accessors": [
    {
      "bufferView": 2,
      "componentType": 5126,
      "count": 921,
      "max": [
        47.371849060058594,
        8.8615703582763672,
        102.75347137451172
      ],
      "min": [
        31.754329681396484,
        -8.8615703582763672,
        84.746536254882812
      ],
      "type": "VEC3"
    },
    {
      "bufferView": 2,
      "byteOffset": 11052,
      "componentType": 5126,
      "count": 921,
      "max": [
        1,
        1,
        1
      ],
      "min": [
        -1,
        -1,
        -0.99879825115203857
      ],
      "type": "VEC3"
    },
    {
      "bufferView": 3,
      "componentType": 5126,
      "count": 921,
      "max": [
        1,
        1,
        1,
        1
      ],
      "min": [
        -0.37553703784942627,
        -1,
        -0.72802895307540894,
        -1
      ],
      "type": "VEC4"
    },
    {
      "bufferView": 1,
      "componentType": 5126,
      "count": 921,
      "max": [
        1,
        1
      ],
      "min": [
        0,
        0
      ],
      "type": "VEC2"
    },
    {
      "bufferView": 0,
      "componentType": 5125,
      "count": 3426,
      "max": [
        920
      ],
      "min": [
        0
      ],
      "type": "SCALAR"
    },
    {
      "bufferView": 2,
      "byteOffset": 22104,
      "componentType": 5126,
      "count": 106,
      "max": [
        60,
        7,
        208.75001525878906
      ],
      "min": [
        -60,
        -7,
        0
      ],
      "type": "VEC3"
    },
    {
      "bufferView": 2,
      "byteOffset": 23376,
      "componentType": 5126,
      "count": 106,
      "max": [
        1,
        1,
        1
      ],
      "min": [
        -1,
        -1,
        -1
      ],
      "type": "VEC3"
    },
    {
      "bufferView": 3,
      "byteOffset": 14736,
      "componentType": 5126,
      "count": 106,
      "max": [
        1,
        0.053528416901826859,
        1,
        1
      ],
      "min": [
        -1,
        -1,
        -1,
        1
      ],
      "type": "VEC4"
    },
    {
      "bufferView": 1,
      "byteOffset": 7368,
      "componentType": 5126,
      "count": 106,
      "max": [
        2.5,
        1.5
      ],
      "min": [
        -1.5,
        -0.5
      ],
      "type": "VEC2"
    },
    {
      "bufferView": 0,
      "byteOffset": 13704,
      "componentType": 5125,
      "count": 162,
      "max": [
        105
      ],
      "min": [
        0
      ],
      "type": "SCALAR"
    },
    {
      "bufferView": 2,
      "byteOffset": 24648,
      "componentType": 5126,
      "count": 448,
      "max": [
        50,
        3.125,
        200
      ],
      "min": [
        -50,
        -3.125,
        0
      ],
      "type": "VEC3"
    },
    {
      "bufferView": 2,
      "byteOffset": 30024,
      "componentType": 5126,
      "count": 448,
      "max": [
        1,
        1,
        1
      ],
      "min": [
        -1,
        -1,
        -1
      ],
      "type": "VEC3"
    },
    {
      "bufferView": 3,
      "byteOffset": 16432,
      "componentType": 5126,
      "count": 448,
      "max": [
        4.1471270378679037e-05,
        0.44720965623855591,
        1,
        1
      ],
      "min": [
        -1,
        -1,
        -1,
        -1
      ],
      "type": "VEC4"
    },
    {
      "bufferView": 1,
      "byteOffset": 8216,
      "componentType": 5126,
      "count": 448,
      "max": [
        1.37322998046875,
        1.2128599882125854
      ],
      "min": [
        -0.38177001476287842,
        -0.21839000284671783
      ],
      "type": "VEC2"
    },
    {
      "bufferView": 0,
      "byteOffset": 14352,
      "componentType": 5125,
      "count": 756,
      "max": [
        447
      ],
      "min": [
        0
      ],
      "type": "SCALAR"
    }
  ],
  "asset": {
    "extras": {
      "author": "r.hessens (https://sketchfab.com/r.hessens)",
      "license": "CC-BY-4.0 (http://creativecommons.org/licenses/by/4.0/)",
      "source": "https://sketchfab.com/models/b1a2328c3af342adae6da2acc45ee3fb",
      "title": "Simple Door"
    },
    "generator": "Sketchfab-3.20.7",
    "version": "2.0"
  },
  "bufferViews": [
    {
      "buffer": 0,
      "byteLength": 17376,
      "byteOffset": 0,
      "name": "floatBufferViews",
      "target": 34963
    },
    {
      "buffer": 0,
      "byteLength": 11800,
      "byteOffset": 17376,
      "byteStride": 8,
      "name": "floatBufferViews",
      "target": 34962
    },
    {
      "buffer": 0,
      "byteLength": 35400,
      "byteOffset": 29176,
      "byteStride": 12,
      "name": "floatBufferViews",
      "target": 34962
    },
    {
      "buffer": 0,
      "byteLength": 23600,
      "byteOffset": 64576,
      "byteStride": 16,
      "name": "floatBufferViews",
      "target": 34962
    }
  ],
  "buffers": [
    {
      "byteLength": 88176,
      "uri": "scene.bin"
    }
  ],
  "extensionsRequired": [
    "KHR_materials_pbrSpecularGlossiness"
  ],
  "extensionsUsed": [
    "KHR_materials_pbrSpecularGlossiness"
  ],
  "images": [
    {
      "uri": "textures/metal_diffuse.jpg"
    },
    {
      "uri": "textures/Frame_diffuse.png"
    },
    {
      "uri": "textures/Door_diffuse.jpg"
    }
  ],
  "materials": [
    {
      "doubleSided": true,
      "extensions": {
        "KHR_materials_pbrSpecularGlossiness": {
          "diffuseFactor": [
            1,
            1,
            1,
            1
          ],
          "diffuseTexture": {
            "index": 2,
            "texCoord": 0
          },
          "glossinessFactor": 0.16693749430000004,
          "specularFactor": [
            0.11145000621781882,
            0.11145000621781882,
            0.11145000621781882
          ]
        }
      },
      "name": "Door"
    },
    {
      "doubleSided": true,
      "extensions": {
        "KHR_materials_pbrSpecularGlossiness": {
          "diffuseFactor": [
            1,
            1,
            1,
            1
          ],
          "diffuseTexture": {
            "index": 1,
            "texCoord": 0
          },
          "glossinessFactor": 0.34193749429999998,
          "specularFactor": [
            0.046450005250943824,
            0.046450005250943824,
            0.046450005250943824
          ]
        }
      },
      "name": "Frame"
    },
    {
      "doubleSided": true,
      "emissiveFactor": [
        0,
        0,
        0
      ],
      "extensions": {
        "KHR_materials_pbrSpecularGlossiness": {
          "diffuseFactor": [
            1,
            1,
            1,
            1
          ],
          "diffuseTexture": {
            "index": 0,
            "texCoord": 0
          },
          "glossinessFactor": 1,
          "specularFactor": [
            0.80000001190000003,
            0.80000001190000003,
            0.80000001190000003
          ]
        }
      },
      "name": "metal"
    }
  ],
  "meshes": [
    {
      "name": "Lock_0",
      "primitives": [
        {
          "attributes": {
            "NORMAL": 1,
            "POSITION": 0,
            "TANGENT": 2,
            "TEXCOORD_0": 3
          },
          "indices": 4,
          "material": 2,
          "mode": 4
        }
      ]
    },
    {
      "name": "Frame_0",
      "primitives": [
        {
          "attributes": {
            "NORMAL": 6,
            "POSITION": 5,
            "TANGENT": 7,
            "TEXCOORD_0": 8
          },
          "indices": 9,
          "material": 1,
          "mode": 4
        }
      ]
    },
    {
      "name": "Door1_0",
      "primitives": [
        {
          "attributes": {
            "NORMAL": 11,
            "POSITION": 10,
            "TANGENT": 12,
            "TEXCOORD_0": 13
          },
          "indices": 14,
          "material": 0,
          "mode": 4
        }
      ]
    }
  ],
  "nodes": [
    {
      "children": [
        1
      ],
      "name": "RootNode (gltf orientation matrix)",
      "rotation": [
        -0.70710678118654746,
        -0,
        -0,
        0.70710678118654757
      ]
    },
    {
      "children": [
        2
      ],
      "name": "RootNode (model correction matrix)"
    },
    {
      "children": [
        3,
        5,
        7
      ],
      "name": "Root"
    },
    {
      "children": [
        4
      ],
      "name": "Lock"
    },
    {
      "mesh": 0,
      "name": "Lock_0"
    },
    {
      "children": [
        6
      ],
      "name": "Frame"
    },
    {
      "mesh": 1,
      "name": "Frame_0"
    },
    {
      "children": [
        8
      ],
      "name": "Door1"
    },
    {
      "mesh": 2,
      "name": "Door1_0"
    }
  ],
  "samplers": [
    {
      "magFilter": 9729,
      "minFilter": 9987,
      "wrapS": 10497,
      "wrapT": 10497
    }
  ],
  "scene": 0,
  "scenes": [
    {
      "name": "OSG_Scene",
      "nodes": [
        0
      ]
    }
  ],
  "textures": [
    {
      "sampler": 0,
      "source": 0
    },
    {
      "sampler": 0,
      "source": 1
    },
    {
      "sampler": 0,
      "source": 2
    }
  ]
}

